# xmcd
# 
# Track frame offsets:
#     150
#     13968
#     29423
#     42113
#     53933
#     68173
#     80878
#     93675
#     107443
#     119850
#     132698
#     144313
#     156955
#     170678
#     182950
#     195445
#     205493
#     216330
#     230730
#     244430
#     263543
#     277975
#     291408
#     311060
# 
# Disc length: 4326
# 
# Revision: 0
# Processed by: cddbd v1.5.2PL0 Copyright (c) Steve Scherf et al.
# Submitted via: BonkEnc v1.0.8
# 
DISCID=8410e418
DTITLE=Various Artist - The Blues - Volume 1
DYEAR=1989
DGENRE=Blues
TTITLE0=Robert Nighthawk - Black Angel Blues
TTITLE1=Eddie Boyd and His Chess Man - 24 Hours
TTITLE2=Big Bill Broonzy - Lonesome
TTITLE3=Washboard Sam - Diggin' My Potatoes
TTITLE4=Lowell Fulson - Reconsider Baby
TTITLE5=Muddy Waters - (I'm Your) Hoochie Coochie Man
TTITLE6=Willie Mabon - Sevent Son
TTITLE7=Willie Dixon - Walking The Blues
TTITLE8=Bo Diddley - I'm A Man
TTITLE9=J.B. Lenoir - Eisenhower Blues
TTITLE10=Sonny Boy Williamson - Don't Start Me Talkin'
TTITLE11=Little Walter - Boom Boom (out go the lights)
TTITLE12=Howlin' Wolf - Smokestack Lightnin'
TTITLE13=Otis Spann - I'm Leaving You
TTITLE14=Jimmy Rogers - Walking By Myself
TTITLE15=B. B. King - Don't Keep Me Waiting
TTITLE16=Elmore James - Madison Blues
TTITLE17=Otis Rush - So Many Roads, So Many Trains
TTITLE18=Albert King - Searchin' For a Woman
TTITLE19=Etta James - Baby What You Want Me To Do
TTITLE20=Buddy Guy - My Time After A While
TTITLE21=Koko Taylor - Wang Dang Doodle
TTITLE22=Little Milton - Stormy Monday
TTITLE23=John Lee Hooker - One Bourbon, One Scotch, One Beer
EXTD=
EXTT0=Robert Nighthawk\n
EXTT1=Eddie Boyd and His Chess Man\n
EXTT2=Big Bill Broonzy\n
EXTT3=Washboard Sam\n
EXTT4=Lowell Fulson\n
EXTT5=Muddy Waters\n
EXTT6=Willie Mabon\n
EXTT7=Willie Dixon\n
EXTT8=Bo Diddley\n
EXTT9=J.B. Lenoir\n
EXTT10=Sonny Boy Williamson\n
EXTT11=Little Walter\n
EXTT12=Howlin' Wolf\n
EXTT13=Otis Spann\n
EXTT14=Jimmy Rogers\n
EXTT15=B.B. King\n
EXTT16=Elmore James\n
EXTT17=Otis Rush\n
EXTT18=Albert King\n
EXTT19=Etta James\n
EXTT20=Buddy Guy\n
EXTT21=Koko Taylor\n
EXTT22=Little Milton\n
EXTT23=John Lee Hooker\n
PLAYORDER=
